<svg width="16" height="16" viewBox="0 0 16 16" fill="none" xmlns="http://www.w3.org/2000/svg">
<path d="M2.9356 3.30288C2.79754 2.67863 3.27267 2.08694 3.912 2.08694H14.7547C15.394 2.08694 15.8692 2.67863 15.7311 3.30288L14.1734 10.3464C14.0721 10.8044 13.6661 11.1304 13.197 11.1304H5.46969C5.00061 11.1304 4.59458 10.8044 4.49329 10.3464L2.9356 3.30288Z" fill="#6C727C"/>
<ellipse cx="6.33335" cy="14.2609" rx="1.66667" ry="1.73913" fill="#6C727C"/>
<ellipse cx="12.3334" cy="14.2609" rx="1.66667" ry="1.73913" fill="#6C727C"/>
<path d="M1.66667 1.04348L2.94823 3.18313C3.17647 3.56419 3.62872 3.74903 4.05853 3.6369L4.66667 3.47826L2.66667 0H0.666667C0.378207 0.451502 0.702479 1.04348 1.23826 1.04348H1.66667Z" fill="#6C727C"/>
</svg>
